<?xml version="1.0" encoding="UTF-8" ?>
<!DOCTYPE svg PUBLIC "-//W3C//DTD SVG 1.1//EN" "http://www.w3.org/Graphics/SVG/1.1/DTD/svg11.dtd">
<svg width="500pt" height="500pt" viewBox="0 0 500 500" version="1.1" xmlns="http://www.w3.org/2000/svg">
<g id="#004600ff">
<path fill="#004600" opacity="1.00" d=" M 230.45 7.79 C 273.81 4.27 318.09 12.55 357.11 31.83 C 409.99 57.69 452.78 103.41 474.95 157.96 C 492.40 200.38 497.28 247.80 489.21 292.93 C 483.17 326.94 469.69 359.59 450.04 387.99 C 430.31 416.56 404.40 440.84 374.60 458.65 C 341.80 478.34 304.27 490.03 266.09 492.46 C 218.21 495.72 169.42 484.42 127.98 460.17 C 75.75 429.99 35.53 379.69 17.85 321.99 C 3.29 275.11 3.40 223.80 18.18 176.98 C 33.95 126.46 66.91 81.60 110.22 51.22 C 145.46 26.34 187.43 11.12 230.45 7.79 M 124.72 78.86 C 123.07 82.69 123.43 86.92 123.42 90.98 C 123.46 106.76 123.39 122.53 123.46 138.31 C 119.25 142.24 115.82 146.88 112.38 151.48 C 92.68 178.32 80.70 210.76 78.29 243.97 C 77.83 254.60 77.76 265.27 78.61 275.88 C 82.35 313.31 97.77 349.85 123.34 377.58 L 123.33 378.05 C 135.50 391.67 149.83 403.38 165.69 412.46 C 202.00 433.38 246.22 440.35 287.08 430.78 C 297.02 429.02 306.65 425.50 315.94 421.59 C 327.18 416.95 337.81 410.89 347.71 403.85 C 352.39 400.28 357.08 396.73 361.53 392.89 C 361.84 392.63 362.45 392.13 362.76 391.88 L 363.03 390.69 C 364.25 391.70 366.34 389.72 365.54 388.42 C 366.35 388.05 367.17 387.69 367.99 387.34 C 371.18 383.43 374.93 380.02 378.25 376.22 C 378.72 375.66 379.20 375.11 379.68 374.57 C 383.94 369.34 387.99 363.96 391.90 358.46 C 392.20 358.00 392.79 357.07 393.09 356.60 C 399.03 347.05 404.67 337.19 408.65 326.65 C 412.77 317.05 415.89 306.98 418.01 296.75 C 422.37 278.50 422.66 259.57 421.48 240.93 C 417.88 203.13 402.39 166.13 376.53 138.16 L 376.52 137.35 C 376.62 127.69 376.56 118.03 376.55 108.37 C 387.90 108.60 397.76 98.26 397.65 87.05 C 398.16 75.78 388.50 64.95 377.04 65.08 C 319.59 65.05 262.14 65.01 204.70 65.10 C 185.38 65.00 166.05 65.06 146.73 65.08 C 137.31 63.77 127.88 70.03 124.72 78.86 Z" />
</g>
<g id="#bec8f7ff">
<path fill="#bec8f7" opacity="1.00" d=" M 124.72 78.86 C 127.88 70.03 137.31 63.77 146.73 65.08 C 153.10 66.34 159.25 69.81 162.39 75.68 C 166.72 82.57 164.16 91.56 168.64 98.37 C 172.40 104.68 179.61 108.70 186.99 108.37 C 203.75 108.17 220.51 108.46 237.27 108.14 C 283.69 108.63 330.12 108.19 376.55 108.37 C 376.56 118.03 376.62 127.69 376.52 137.35 C 365.89 137.03 355.25 137.43 344.61 137.08 C 344.07 134.70 342.69 132.22 340.04 131.86 C 336.82 131.20 334.45 134.15 333.83 136.99 C 326.45 137.33 319.05 137.21 311.67 137.28 C 309.98 135.08 308.35 131.75 305.09 132.02 C 302.16 131.79 300.53 134.54 299.84 136.98 C 291.45 137.42 283.05 137.21 274.65 137.13 C 273.70 134.61 271.93 132.03 269.00 131.79 C 265.60 131.36 263.11 134.24 262.12 137.17 C 251.54 137.41 240.94 136.88 230.37 137.56 C 226.62 134.39 222.01 131.94 216.99 131.82 C 211.63 131.61 206.59 134.14 202.59 137.54 C 194.71 137.28 186.46 136.10 178.87 138.86 C 173.46 140.78 169.99 145.59 166.77 150.07 C 166.68 145.66 166.60 141.23 166.05 136.85 C 165.85 133.08 161.10 130.26 157.93 132.70 C 155.07 134.43 155.53 138.12 155.42 140.98 C 155.58 156.33 155.37 171.68 155.50 187.03 C 155.27 189.84 156.98 192.68 159.89 193.15 C 161.75 193.66 163.63 194.09 165.52 194.54 C 165.90 206.72 165.60 218.91 165.72 231.10 C 163.76 231.38 161.41 231.33 160.06 233.02 C 158.14 235.09 158.10 238.85 160.36 240.68 C 161.93 241.74 163.90 241.86 165.72 242.15 C 165.67 249.32 165.66 256.49 165.67 263.67 C 163.99 263.89 162.24 264.00 160.71 264.75 C 157.90 266.69 157.94 271.43 160.70 273.40 C 162.51 274.62 164.80 274.44 166.88 274.48 C 173.13 274.34 179.38 274.26 185.63 274.30 C 184.85 272.53 183.94 270.81 183.42 268.95 C 183.97 267.09 184.99 265.41 185.88 263.70 C 200.75 264.00 215.64 263.44 230.51 264.07 C 228.15 267.52 225.99 271.09 224.02 274.77 C 204.49 274.49 184.94 274.59 165.42 275.17 C 165.81 282.15 165.93 289.14 165.29 296.11 C 161.61 296.04 157.65 298.93 158.77 302.99 C 159.24 306.36 162.99 306.94 165.75 307.18 C 165.68 314.35 165.63 321.52 165.63 328.69 C 163.97 328.91 162.26 329.08 160.73 329.82 C 158.01 331.74 157.89 336.45 160.66 338.40 C 162.51 339.66 164.86 339.45 166.98 339.50 C 173.16 339.37 179.34 339.32 185.53 339.28 C 184.85 337.56 183.81 335.91 183.63 334.06 C 183.89 332.17 184.71 330.43 185.37 328.66 C 194.01 328.79 202.65 328.80 211.30 328.85 C 211.34 332.49 211.50 336.15 211.97 339.77 C 196.48 339.43 181.00 340.02 165.51 340.02 C 165.72 347.05 165.93 354.11 165.30 361.13 C 163.50 361.49 161.34 361.54 160.07 363.08 C 157.98 365.33 158.29 369.36 160.77 371.20 C 162.31 371.91 164.05 372.01 165.72 372.22 C 165.63 385.63 165.74 399.05 165.69 412.46 C 149.83 403.38 135.50 391.67 123.33 378.05 L 123.34 377.58 C 123.57 297.83 123.34 218.06 123.46 138.31 C 123.39 122.53 123.46 106.76 123.42 90.98 C 123.43 86.92 123.07 82.69 124.72 78.86 Z" />
<path fill="#bec8f7" opacity="1.00" d=" M 185.93 231.16 C 212.74 231.22 239.54 231.16 266.34 231.21 C 260.73 234.43 255.40 238.11 250.41 242.23 C 228.88 241.91 207.34 242.10 185.80 242.13 C 184.98 240.20 183.64 238.35 183.46 236.22 C 184.07 234.44 185.05 232.81 185.93 231.16 Z" />
<path fill="#bec8f7" opacity="1.00" d=" M 185.92 296.19 C 195.75 296.15 205.58 296.24 215.42 296.24 C 214.41 299.81 213.58 303.42 212.93 307.07 C 203.91 307.13 194.88 307.04 185.86 307.15 C 185.19 305.80 184.50 304.46 183.94 303.06 C 182.62 300.61 185.07 298.37 185.92 296.19 Z" />
<path fill="#bec8f7" opacity="1.00" d=" M 185.97 361.22 C 196.19 361.16 206.42 361.48 216.64 361.03 C 217.87 364.79 219.31 368.48 220.93 372.09 C 209.20 372.18 197.48 372.04 185.76 372.19 C 184.94 370.41 183.98 368.67 183.48 366.77 C 183.93 364.77 185.06 363.02 185.97 361.22 Z" />
<path fill="#bec8f7" opacity="1.00" d=" M 216.75 393.78 C 222.49 393.83 228.23 393.86 233.97 393.87 C 236.88 397.65 240.03 401.24 243.42 404.60 C 235.29 404.83 227.17 404.59 219.05 404.82 C 212.26 404.99 205.43 405.35 198.67 404.46 C 204.29 404.39 209.91 404.34 215.53 404.30 C 214.99 402.24 214.08 400.21 214.10 398.05 C 214.81 396.52 215.81 395.16 216.75 393.78 Z" />
</g>
<g id="#d3dcfbff">
<path fill="#d3dcfb" opacity="1.00" d=" M 146.73 65.08 C 166.05 65.06 185.38 65.00 204.70 65.10 C 210.63 66.76 216.24 70.35 219.08 75.97 C 223.02 82.51 220.71 90.84 224.64 97.36 C 227.41 102.34 232.30 105.64 237.27 108.14 C 220.51 108.46 203.75 108.17 186.99 108.37 C 179.61 108.70 172.40 104.68 168.64 98.37 C 164.16 91.56 166.72 82.57 162.39 75.68 C 159.25 69.81 153.10 66.34 146.73 65.08 Z" />
<path fill="#d3dcfb" opacity="1.00" d=" M 166.05 136.85 C 166.60 141.23 166.68 145.66 166.77 150.07 C 169.99 145.59 173.46 140.78 178.87 138.86 C 186.46 136.10 194.71 137.28 202.59 137.54 C 190.79 149.31 189.56 169.55 198.89 183.15 C 202.73 188.78 209.01 193.05 215.96 193.29 C 223.33 193.46 230.16 188.99 234.15 182.98 C 243.31 169.39 242.06 149.31 230.37 137.56 C 240.94 136.88 251.54 137.41 262.12 137.17 C 257.12 152.72 251.98 168.24 246.82 183.74 C 246.15 186.08 245.07 188.91 246.87 191.04 C 248.58 193.64 252.66 194.19 254.73 191.70 C 257.02 188.49 257.68 184.47 258.93 180.80 C 265.15 181.03 271.43 180.26 277.60 181.16 C 279.22 184.46 279.65 188.25 281.62 191.38 C 283.44 193.95 287.51 193.89 289.45 191.48 C 291.50 189.43 290.62 186.37 289.88 183.94 C 284.74 168.36 279.64 152.76 274.65 137.13 C 283.05 137.21 291.45 137.42 299.84 136.98 C 299.95 152.99 299.91 168.99 299.87 185.00 C 299.85 187.87 300.06 191.59 303.18 192.84 C 305.92 194.39 308.65 192.29 310.13 190.06 C 310.72 178.41 310.49 166.71 310.26 155.06 C 312.17 157.42 314.19 159.72 315.73 162.37 C 321.51 171.16 327.51 179.80 333.29 188.59 C 334.74 190.58 336.27 193.17 339.03 193.33 C 342.34 193.52 344.81 190.26 344.51 187.12 C 344.62 170.44 344.40 153.76 344.61 137.08 C 355.25 137.43 365.89 137.03 376.52 137.35 L 376.53 138.16 C 376.62 171.21 376.55 204.26 376.56 237.32 C 374.00 235.51 371.39 233.78 368.72 232.16 C 337.95 213.69 297.51 213.58 266.34 231.21 C 239.54 231.16 212.74 231.22 185.93 231.16 C 179.19 231.31 172.45 231.23 165.72 231.10 C 165.60 218.91 165.90 206.72 165.52 194.54 C 163.63 194.09 161.75 193.66 159.89 193.15 C 166.90 193.55 173.93 193.16 180.95 193.35 C 183.99 193.23 188.07 193.80 189.83 190.65 C 191.93 187.55 189.71 182.63 185.88 182.54 C 179.24 182.15 172.57 182.58 165.92 182.40 C 166.25 167.22 166.19 152.03 166.05 136.85 Z" />
<path fill="#d3dcfb" opacity="1.00" d=" M 311.67 137.28 C 319.05 137.21 326.45 137.33 333.83 136.99 C 333.98 148.14 333.69 159.30 334.09 170.45 C 326.44 159.52 319.09 148.37 311.67 137.28 Z" />
<path fill="#d3dcfb" opacity="1.00" d=" M 213.21 143.33 C 217.68 141.27 222.65 144.15 225.21 147.85 C 231.30 156.57 231.18 169.29 224.79 177.82 C 222.09 181.47 216.88 183.85 212.59 181.50 C 205.75 177.79 203.15 169.31 203.33 161.96 C 203.41 154.79 206.30 146.55 213.21 143.33 Z" />
<path fill="#d3dcfb" opacity="1.00" d=" M 165.72 242.15 C 172.42 242.13 179.11 242.01 185.80 242.13 C 207.34 242.10 228.88 241.91 250.41 242.23 C 242.79 248.53 236.13 255.95 230.51 264.07 C 215.64 263.44 200.75 264.00 185.88 263.70 C 179.14 263.78 172.40 263.67 165.67 263.67 C 165.66 256.49 165.67 249.32 165.72 242.15 Z" />
<path fill="#d3dcfb" opacity="1.00" d=" M 165.42 275.17 C 184.94 274.59 204.49 274.49 224.02 274.77 C 220.42 281.61 217.51 288.81 215.42 296.24 C 205.58 296.24 195.75 296.15 185.92 296.19 C 179.04 296.38 172.16 296.26 165.29 296.11 C 165.93 289.14 165.81 282.15 165.42 275.17 Z" />
<path fill="#d3dcfb" opacity="1.00" d=" M 165.75 307.18 C 172.45 307.19 179.15 307.08 185.86 307.15 C 194.88 307.04 203.91 307.13 212.93 307.07 C 211.58 314.25 211.16 321.56 211.30 328.85 C 202.65 328.80 194.01 328.79 185.37 328.66 C 178.79 328.79 172.21 328.71 165.63 328.69 C 165.63 321.52 165.68 314.35 165.75 307.18 Z" />
<path fill="#d3dcfb" opacity="1.00" d=" M 165.51 340.02 C 181.00 340.02 196.48 339.43 211.97 339.77 C 212.90 346.97 214.39 354.11 216.64 361.03 C 206.42 361.48 196.19 361.16 185.97 361.22 C 179.08 361.38 172.19 361.29 165.30 361.13 C 165.93 354.11 165.72 347.05 165.51 340.02 Z" />
<path fill="#d3dcfb" opacity="1.00" d=" M 165.72 372.22 C 172.40 372.20 179.08 372.10 185.76 372.19 C 197.48 372.04 209.20 372.18 220.93 372.09 C 224.42 379.82 228.79 387.15 233.97 393.87 C 228.23 393.86 222.49 393.83 216.75 393.78 C 211.20 393.93 205.61 393.30 200.10 394.09 C 197.69 394.36 196.04 396.72 196.03 399.03 C 195.89 401.18 197.54 402.82 198.67 404.46 C 205.43 405.35 212.26 404.99 219.05 404.82 C 227.17 404.59 235.29 404.83 243.42 404.60 C 255.57 416.69 270.67 425.79 287.08 430.78 C 246.22 440.35 202.00 433.38 165.69 412.46 C 165.74 399.05 165.63 385.63 165.72 372.22 Z" />
</g>
<g id="#e9efffff">
<path fill="#e9efff" opacity="1.00" d=" M 204.70 65.10 C 262.14 65.01 319.59 65.05 377.04 65.08 C 388.50 64.95 398.16 75.78 397.65 87.05 C 397.76 98.26 387.90 108.60 376.55 108.37 C 330.12 108.19 283.69 108.63 237.27 108.14 C 232.30 105.64 227.41 102.34 224.64 97.36 C 220.71 90.84 223.02 82.51 219.08 75.97 C 216.24 70.35 210.63 66.76 204.70 65.10 Z" />
</g>
<g id="#ff4155ff">
<path fill="#ff4155" opacity="1.00" d=" M 157.93 132.70 C 161.10 130.26 165.85 133.08 166.05 136.85 C 166.19 152.03 166.25 167.22 165.92 182.40 C 172.57 182.58 179.24 182.15 185.88 182.54 C 189.71 182.63 191.93 187.55 189.83 190.65 C 188.07 193.80 183.99 193.23 180.95 193.35 C 173.93 193.16 166.90 193.55 159.89 193.15 C 156.98 192.68 155.27 189.84 155.50 187.03 C 155.37 171.68 155.58 156.33 155.42 140.98 C 155.53 138.12 155.07 134.43 157.93 132.70 Z" />
<path fill="#ff4155" opacity="1.00" d=" M 202.59 137.54 C 206.59 134.14 211.63 131.61 216.99 131.82 C 222.01 131.94 226.62 134.39 230.37 137.56 C 242.06 149.31 243.31 169.39 234.15 182.98 C 230.16 188.99 223.33 193.46 215.96 193.29 C 209.01 193.05 202.73 188.78 198.89 183.15 C 189.56 169.55 190.79 149.31 202.59 137.54 M 213.21 143.33 C 206.30 146.55 203.41 154.79 203.33 161.96 C 203.15 169.31 205.75 177.79 212.59 181.50 C 216.88 183.85 222.09 181.47 224.79 177.82 C 231.18 169.29 231.30 156.57 225.21 147.85 C 222.65 144.15 217.68 141.27 213.21 143.33 Z" />
<path fill="#ff4155" opacity="1.00" d=" M 262.12 137.17 C 263.11 134.24 265.60 131.36 269.00 131.79 C 271.93 132.03 273.70 134.61 274.65 137.13 C 279.64 152.76 284.74 168.36 289.88 183.94 C 290.62 186.37 291.50 189.43 289.45 191.48 C 287.51 193.89 283.44 193.95 281.62 191.38 C 279.65 188.25 279.22 184.46 277.60 181.16 C 271.43 180.26 265.15 181.03 258.93 180.80 C 257.68 184.47 257.02 188.49 254.73 191.70 C 252.66 194.19 248.58 193.64 246.87 191.04 C 245.07 188.91 246.15 186.08 246.82 183.74 C 251.98 168.24 257.12 152.72 262.12 137.17 M 262.48 170.12 C 266.36 170.12 270.24 170.11 274.12 170.09 C 272.32 164.17 270.42 158.27 268.37 152.43 C 266.29 158.29 264.44 164.22 262.48 170.12 Z" />
<path fill="#ff4155" opacity="1.00" d=" M 299.84 136.98 C 300.53 134.54 302.16 131.79 305.09 132.02 C 308.35 131.75 309.98 135.08 311.67 137.28 C 319.09 148.37 326.44 159.52 334.09 170.45 C 333.69 159.30 333.98 148.14 333.83 136.99 C 334.45 134.15 336.82 131.20 340.04 131.86 C 342.69 132.22 344.07 134.70 344.61 137.08 C 344.40 153.76 344.62 170.44 344.51 187.12 C 344.81 190.26 342.34 193.52 339.03 193.33 C 336.27 193.17 334.74 190.58 333.29 188.59 C 327.51 179.80 321.51 171.16 315.73 162.37 C 314.19 159.72 312.17 157.42 310.26 155.06 L 309.54 153.98 C 308.84 159.28 308.90 164.63 308.99 169.97 C 309.19 176.67 308.16 183.51 310.13 190.06 C 308.65 192.29 305.92 194.39 303.18 192.84 C 300.06 191.59 299.85 187.87 299.87 185.00 C 299.91 168.99 299.95 152.99 299.84 136.98 Z" />
</g>
<g id="#55bf28ff">
<path fill="#55bf28" opacity="1.00" d=" M 112.38 151.48 C 115.82 146.88 119.25 142.24 123.46 138.31 C 123.34 218.06 123.57 297.83 123.34 377.58 C 97.77 349.85 82.35 313.31 78.61 275.88 C 77.76 265.27 77.83 254.60 78.29 243.97 C 80.70 210.76 92.68 178.32 112.38 151.48 Z" />
<path fill="#55bf28" opacity="1.00" d=" M 376.53 138.16 C 402.39 166.13 417.88 203.13 421.48 240.93 C 422.66 259.57 422.37 278.50 418.01 296.75 C 411.86 272.88 396.63 251.56 376.56 237.32 C 376.55 204.26 376.62 171.21 376.53 138.16 Z" />
</g>
<g id="#d3dcfcff">
<path fill="#d3dcfc" opacity="1.00" d=" M 262.48 170.12 C 264.44 164.22 266.29 158.29 268.37 152.43 C 270.42 158.27 272.32 164.17 274.12 170.09 C 270.24 170.11 266.36 170.12 262.48 170.12 Z" />
</g>
<g id="#ff2c3eff">
<path fill="#ff2c3e" opacity="1.00" d=" M 309.54 153.98 L 310.26 155.06 C 310.49 166.71 310.72 178.41 310.13 190.06 C 308.16 183.51 309.19 176.67 308.99 169.97 C 308.90 164.63 308.84 159.28 309.54 153.98 Z" />
</g>
<g id="#ffc839ff">
<path fill="#ffc839" opacity="1.00" d=" M 266.34 231.21 C 297.51 213.58 337.95 213.69 368.72 232.16 C 364.33 235.13 359.97 238.12 355.90 241.52 C 365.77 246.69 374.98 253.23 382.63 261.38 C 395.38 275.46 404.37 293.17 407.04 312.06 C 407.70 316.91 408.33 321.77 408.65 326.65 C 404.67 337.19 399.03 347.05 393.09 356.60 C 391.27 355.93 389.44 355.28 387.62 354.62 C 387.44 353.14 387.32 351.65 386.99 350.21 C 385.47 347.99 382.31 346.80 379.73 347.64 C 378.12 349.00 377.50 351.17 376.46 352.95 C 381.60 354.81 386.74 356.65 391.90 358.46 C 387.99 363.96 383.94 369.34 379.68 374.57 C 379.19 374.19 378.22 373.44 377.73 373.07 C 377.82 371.18 379.00 369.03 377.69 367.33 C 376.42 365.60 374.35 364.09 372.12 364.25 C 370.15 365.04 368.99 367.04 367.51 368.47 C 371.09 371.05 374.66 373.65 378.25 376.22 C 374.93 380.02 371.18 383.43 367.99 387.34 C 364.18 384.07 360.24 380.95 355.87 378.46 C 357.12 383.50 359.35 388.20 361.53 392.89 C 357.08 396.73 352.39 400.28 347.71 403.85 C 338.30 395.61 331.65 384.73 326.13 373.64 L 326.10 373.33 C 333.07 372.58 340.36 370.63 345.23 365.23 C 348.59 362.06 350.43 357.74 351.95 353.47 C 354.02 351.06 356.17 348.34 356.24 345.01 C 356.54 341.70 354.73 338.74 352.77 336.25 C 342.76 323.84 332.81 311.38 322.88 298.91 C 330.21 298.54 337.58 299.30 344.89 298.60 C 350.22 298.17 354.01 292.41 352.69 287.32 C 352.00 283.54 348.60 280.72 344.84 280.34 C 338.60 279.66 332.31 280.28 326.05 280.11 L 326.09 279.44 C 333.14 265.03 342.99 251.98 355.41 241.77 C 340.72 233.74 323.42 231.79 306.95 233.18 C 286.06 235.50 266.14 245.46 251.72 260.74 C 234.42 278.50 225.06 303.38 225.28 328.07 C 225.75 342.83 229.21 357.60 236.23 370.65 C 248.11 394.41 270.97 412.29 296.83 418.28 C 303.09 420.03 309.75 419.50 315.94 421.59 C 306.65 425.50 297.02 429.02 287.08 430.78 C 270.67 425.79 255.57 416.69 243.42 404.60 C 240.03 401.24 236.88 397.65 233.97 393.87 C 228.79 387.15 224.42 379.82 220.93 372.09 C 219.31 368.48 217.87 364.79 216.64 361.03 C 214.39 354.11 212.90 346.97 211.97 339.77 C 211.50 336.15 211.34 332.49 211.30 328.85 C 211.16 321.56 211.58 314.25 212.93 307.07 C 213.58 303.42 214.41 299.81 215.42 296.24 C 217.51 288.81 220.42 281.61 224.02 274.77 C 225.99 271.09 228.15 267.52 230.51 264.07 C 236.13 255.95 242.79 248.53 250.41 242.23 C 255.40 238.11 260.73 234.43 266.34 231.21 M 366.85 261.80 C 362.95 264.91 358.88 267.82 355.27 271.28 C 357.47 272.21 359.17 270.61 360.88 269.50 C 361.77 270.23 362.66 270.96 363.56 271.69 C 363.01 273.09 362.45 274.49 361.88 275.88 C 362.35 276.10 363.29 276.53 363.76 276.74 C 366.10 271.29 368.58 265.89 370.73 260.36 C 369.31 260.43 367.92 260.83 366.85 261.80 M 372.27 285.46 C 372.23 285.83 372.15 286.58 372.11 286.96 C 374.49 286.86 376.20 285.00 378.08 283.78 C 380.62 286.61 384.93 286.22 387.07 283.12 C 389.28 280.70 386.53 277.94 385.24 275.85 C 381.00 279.17 376.34 281.94 372.27 285.46 M 380.87 302.82 C 382.74 305.50 385.70 302.71 388.02 302.41 C 389.64 306.09 394.16 306.58 397.06 304.12 C 399.60 302.33 397.62 299.20 397.22 296.85 C 391.74 298.76 386.21 300.54 380.87 302.82 M 380.32 316.39 C 373.80 318.50 370.60 327.45 375.08 332.88 C 378.34 337.90 385.85 338.68 390.39 334.99 C 393.87 335.40 397.87 333.68 398.59 329.95 C 399.58 326.16 396.60 322.78 393.11 321.84 C 390.65 317.43 385.30 314.46 380.32 316.39 Z" />
<path fill="#ffc839" opacity="1.00" d=" M 379.53 283.11 C 381.38 281.46 383.32 279.92 385.34 278.49 C 386.99 281.99 382.47 284.44 379.53 283.11 Z" />
<path fill="#ffc839" opacity="1.00" d=" M 288.25 288.24 C 292.87 283.15 299.52 280.69 306.21 279.86 C 303.22 281.46 299.78 283.46 299.09 287.09 C 298.21 289.99 299.72 292.81 300.61 295.50 C 296.26 305.96 291.79 316.37 287.34 326.79 C 284.97 323.53 282.68 320.11 281.63 316.18 C 278.47 306.59 281.37 295.50 288.25 288.24 Z" />
<path fill="#ffc839" opacity="1.00" d=" M 389.72 301.85 C 391.98 300.98 394.24 300.12 396.56 299.41 C 396.94 303.20 391.89 304.42 389.72 301.85 Z" />
<path fill="#ffc839" opacity="1.00" d=" M 319.25 300.17 C 324.08 306.02 328.74 312.00 333.50 317.90 C 324.37 316.69 315.15 317.44 306.00 317.94 C 301.80 317.91 298.95 322.12 298.80 325.98 C 298.59 329.61 301.08 332.54 302.85 335.46 C 298.09 334.86 293.89 332.45 289.97 329.84 C 292.79 323.19 295.66 316.57 298.45 309.91 C 300.39 312.38 301.97 315.81 305.34 316.52 C 308.80 317.22 312.35 316.89 315.85 316.84 C 316.60 311.21 317.68 305.63 319.25 300.17 Z" />
<path fill="#ffc839" opacity="1.00" d=" M 240.73 322.02 C 243.14 314.43 254.70 313.70 258.64 320.33 C 263.20 326.19 259.32 335.91 252.07 337.14 C 249.11 337.86 246.27 336.66 243.75 335.23 C 246.51 333.85 249.45 331.52 248.92 328.04 C 248.87 323.80 244.49 321.69 240.73 322.02 Z" />
<path fill="#ffc839" opacity="1.00" d=" M 315.94 335.94 C 321.84 336.26 330.11 334.14 333.59 340.46 C 336.58 344.92 333.81 349.97 331.00 353.69 C 317.32 355.34 303.69 357.32 290.00 358.86 C 287.41 359.38 285.03 358.25 283.01 356.75 C 285.81 355.34 288.76 354.02 291.97 354.07 C 300.97 353.91 309.99 354.28 319.00 353.92 C 317.71 347.97 316.66 341.98 315.94 335.94 Z" />
<path fill="#ffc839" opacity="1.00" d=" M 379.06 351.56 C 379.64 350.79 380.22 350.02 380.81 349.25 C 382.67 350.33 385.92 350.69 385.66 353.61 C 383.39 353.18 381.20 352.42 379.06 351.56 Z" />
<path fill="#ffc839" opacity="1.00" d=" M 280.76 359.76 C 285.88 363.97 292.65 362.31 298.59 361.47 C 298.96 363.70 298.88 366.10 299.82 368.21 C 301.18 370.23 303.22 371.66 305.17 373.06 C 298.70 372.76 292.03 374.19 285.70 372.33 C 280.78 370.33 279.96 364.40 280.76 359.76 Z" />
<path fill="#ffc839" opacity="1.00" d=" M 358.96 382.46 C 360.85 384.02 362.67 385.66 364.50 387.29 C 363.59 387.63 362.74 388.08 361.93 388.60 C 360.84 386.60 359.89 384.53 358.96 382.46 Z" />
</g>
<g id="#a2b6f4ff">
<path fill="#a2b6f4" opacity="1.00" d=" M 160.06 233.02 C 161.41 231.33 163.76 231.38 165.72 231.10 C 172.45 231.23 179.19 231.31 185.93 231.16 C 185.05 232.81 184.07 234.44 183.46 236.22 C 183.64 238.35 184.98 240.20 185.80 242.13 C 179.11 242.01 172.42 242.13 165.72 242.15 C 163.90 241.86 161.93 241.74 160.36 240.68 C 158.10 238.85 158.14 235.09 160.06 233.02 Z" />
<path fill="#a2b6f4" opacity="1.00" d=" M 160.71 264.75 C 162.24 264.00 163.99 263.89 165.67 263.67 C 172.40 263.67 179.14 263.78 185.88 263.70 C 184.99 265.41 183.97 267.09 183.42 268.95 C 183.94 270.81 184.85 272.53 185.63 274.30 C 179.38 274.26 173.13 274.34 166.88 274.48 C 164.80 274.44 162.51 274.62 160.70 273.40 C 157.94 271.43 157.90 266.69 160.71 264.75 Z" />
<path fill="#a2b6f4" opacity="1.00" d=" M 158.77 302.99 C 157.65 298.93 161.61 296.04 165.29 296.11 C 172.16 296.26 179.04 296.38 185.92 296.19 C 185.07 298.37 182.62 300.61 183.94 303.06 C 184.50 304.46 185.19 305.80 185.86 307.15 C 179.15 307.08 172.45 307.19 165.75 307.18 C 162.99 306.94 159.24 306.36 158.77 302.99 Z" />
<path fill="#a2b6f4" opacity="1.00" d=" M 160.73 329.82 C 162.26 329.08 163.97 328.91 165.63 328.69 C 172.21 328.71 178.79 328.79 185.37 328.66 C 184.71 330.43 183.89 332.17 183.63 334.06 C 183.81 335.91 184.85 337.56 185.53 339.28 C 179.34 339.32 173.16 339.37 166.98 339.50 C 164.86 339.45 162.51 339.66 160.66 338.40 C 157.89 336.45 158.01 331.74 160.73 329.82 Z" />
<path fill="#a2b6f4" opacity="1.00" d=" M 160.07 363.08 C 161.34 361.54 163.50 361.49 165.30 361.13 C 172.19 361.29 179.08 361.38 185.97 361.22 C 185.06 363.02 183.93 364.77 183.48 366.77 C 183.98 368.67 184.94 370.41 185.76 372.19 C 179.08 372.10 172.40 372.20 165.72 372.22 C 164.05 372.01 162.31 371.91 160.77 371.20 C 158.29 369.36 157.98 365.33 160.07 363.08 Z" />
<path fill="#a2b6f4" opacity="1.00" d=" M 196.03 399.03 C 196.04 396.72 197.69 394.36 200.10 394.09 C 205.61 393.30 211.20 393.93 216.75 393.78 C 215.81 395.16 214.81 396.52 214.10 398.05 C 214.08 400.21 214.99 402.24 215.53 404.30 C 209.91 404.34 204.29 404.39 198.67 404.46 C 197.54 402.82 195.89 401.18 196.03 399.03 Z" />
</g>
<g id="#ffdd40ff">
<path fill="#ffdd40" opacity="1.00" d=" M 368.72 232.16 C 371.39 233.78 374.00 235.51 376.56 237.32 C 396.63 251.56 411.86 272.88 418.01 296.75 C 415.89 306.98 412.77 317.05 408.65 326.65 C 408.33 321.77 407.70 316.91 407.04 312.06 C 404.37 293.17 395.38 275.46 382.63 261.38 C 374.98 253.23 365.77 246.69 355.90 241.52 C 359.97 238.12 364.33 235.13 368.72 232.16 Z" />
<path fill="#ffdd40" opacity="1.00" d=" M 308.45 267.35 C 310.25 261.84 318.06 259.66 322.39 263.58 C 326.99 267.43 325.64 274.14 326.09 279.44 L 326.05 280.11 C 332.31 280.28 338.60 279.66 344.84 280.34 C 348.60 280.72 352.00 283.54 352.69 287.32 C 354.01 292.41 350.22 298.17 344.89 298.60 C 337.58 299.30 330.21 298.54 322.88 298.91 C 319.95 295.31 317.13 290.66 312.11 289.95 C 307.50 288.95 303.02 291.68 300.61 295.50 C 299.72 292.81 298.21 289.99 299.09 287.09 C 299.78 283.46 303.22 281.46 306.21 279.86 C 306.59 279.79 307.33 279.64 307.71 279.56 C 307.74 275.49 307.38 271.32 308.45 267.35 Z" />
<path fill="#ffdd40" opacity="1.00" d=" M 303.24 298.44 C 304.72 295.57 307.51 293.05 310.97 293.47 C 314.25 293.59 316.27 296.39 318.21 298.65 C 313.22 298.79 308.22 298.67 303.24 298.44 Z" />
<path fill="#ffdd40" opacity="1.00" d=" M 380.32 316.39 C 385.30 314.46 390.65 317.43 393.11 321.84 C 390.07 322.22 386.70 323.70 386.04 327.04 C 384.95 330.48 387.72 333.33 390.39 334.99 C 385.85 338.68 378.34 337.90 375.08 332.88 C 370.60 327.45 373.80 318.50 380.32 316.39 Z" />
<path fill="#ffdd40" opacity="1.00" d=" M 306.00 317.94 C 315.15 317.44 324.37 316.69 333.50 317.90 C 339.34 325.26 345.32 332.52 351.08 339.93 C 354.28 343.60 352.33 350.10 347.61 351.33 C 342.14 352.54 336.52 352.77 331.00 353.69 C 333.81 349.97 336.58 344.92 333.59 340.46 C 330.11 334.14 321.84 336.26 315.94 335.94 C 311.57 335.95 307.20 335.88 302.85 335.46 C 301.08 332.54 298.59 329.61 298.80 325.98 C 298.95 322.12 301.80 317.91 306.00 317.94 Z" />
<path fill="#ffdd40" opacity="1.00" d=" M 335.11 356.74 C 340.77 355.96 346.64 355.82 351.95 353.47 C 350.43 357.74 348.59 362.06 345.23 365.23 C 340.36 370.63 333.07 372.58 326.10 373.33 L 326.13 373.64 C 325.64 379.08 327.09 386.26 321.96 389.92 C 317.48 393.58 310.17 390.97 308.41 385.68 C 307.37 381.66 307.70 377.45 307.67 373.34 C 307.05 373.27 305.80 373.13 305.17 373.06 C 303.22 371.66 301.18 370.23 299.82 368.21 C 298.88 366.10 298.96 363.70 298.59 361.47 C 310.76 359.87 322.94 358.34 335.11 356.74 Z" />
<path fill="#ffdd40" opacity="1.00" d=" M 363.03 390.69 C 363.11 389.36 364.50 388.84 365.54 388.42 C 366.34 389.72 364.25 391.70 363.03 390.69 Z" />
</g>
<g id="#ffb332ff">
<path fill="#ffb332" opacity="1.00" d=" M 251.72 260.74 C 266.14 245.46 286.06 235.50 306.95 233.18 C 323.42 231.79 340.72 233.74 355.41 241.77 C 342.99 251.98 333.14 265.03 326.09 279.44 C 325.64 274.14 326.99 267.43 322.39 263.58 C 318.06 259.66 310.25 261.84 308.45 267.35 C 307.38 271.32 307.74 275.49 307.71 279.56 C 307.33 279.64 306.59 279.79 306.21 279.86 C 299.52 280.69 292.87 283.15 288.25 288.24 C 281.37 295.50 278.47 306.59 281.63 316.18 C 282.68 320.11 284.97 323.53 287.34 326.79 C 284.44 334.01 281.01 341.02 278.32 348.33 C 276.69 352.31 278.45 356.48 280.76 359.76 C 279.96 364.40 280.78 370.33 285.70 372.33 C 292.03 374.19 298.70 372.76 305.17 373.06 C 305.80 373.13 307.05 373.27 307.67 373.34 C 307.70 377.45 307.37 381.66 308.41 385.68 C 310.17 390.97 317.48 393.58 321.96 389.92 C 327.09 386.26 325.64 379.08 326.13 373.64 C 331.65 384.73 338.30 395.61 347.71 403.85 C 337.81 410.89 327.18 416.95 315.94 421.59 C 309.75 419.50 303.09 420.03 296.83 418.28 C 270.97 412.29 248.11 394.41 236.23 370.65 C 229.21 357.60 225.75 342.83 225.28 328.07 C 225.06 303.38 234.42 278.50 251.72 260.74 M 324.51 243.19 C 323.90 248.76 323.09 254.30 322.56 259.88 C 323.08 259.68 324.11 259.27 324.63 259.07 C 325.41 255.41 325.58 251.65 326.02 247.94 C 327.02 252.00 327.59 256.19 329.13 260.10 C 329.60 260.15 330.53 260.25 330.99 260.30 C 331.90 254.84 332.38 249.32 333.04 243.82 C 332.51 243.80 331.45 243.76 330.92 243.74 C 330.48 247.64 329.93 251.53 329.42 255.43 C 328.81 251.25 327.91 247.13 326.69 243.09 C 326.14 243.11 325.05 243.17 324.51 243.19 M 302.05 244.93 C 301.24 250.50 301.15 256.15 300.73 261.75 C 303.16 261.05 303.05 258.60 303.43 256.58 C 304.52 256.42 305.62 256.26 306.72 256.10 C 307.89 257.60 308.14 260.51 310.84 259.84 C 308.40 254.26 306.29 248.48 303.12 243.26 C 302.85 243.68 302.32 244.52 302.05 244.93 M 279.30 251.40 C 277.40 251.92 276.00 253.90 276.51 255.89 C 277.47 259.90 279.39 263.84 282.37 266.74 C 284.69 268.95 289.13 266.09 288.40 263.05 C 287.69 259.46 285.93 256.12 283.77 253.18 C 282.80 251.77 281.04 250.61 279.30 251.40 M 257.03 266.72 C 260.81 271.06 264.85 275.17 268.80 279.36 C 270.20 277.74 272.47 276.53 272.87 274.28 C 271.17 273.80 270.06 275.40 268.77 276.18 C 265.52 272.94 262.70 269.26 259.19 266.29 C 258.65 266.40 257.57 266.61 257.03 266.72 M 251.60 290.53 C 253.70 289.52 254.84 287.50 255.90 285.54 C 252.77 284.71 252.18 288.39 251.60 290.53 M 235.05 304.99 C 240.40 306.61 245.74 308.28 251.09 309.89 C 251.73 307.63 252.19 305.33 252.36 302.99 C 251.13 304.14 250.26 305.59 249.42 307.03 C 247.69 306.54 245.95 306.06 244.22 305.59 C 244.42 304.01 244.94 302.20 243.24 301.22 C 242.82 302.44 242.41 303.67 242.01 304.91 C 240.57 304.44 239.14 303.97 237.71 303.51 C 237.90 302.32 238.28 299.95 238.47 298.76 C 236.03 299.91 235.87 302.77 235.05 304.99 M 240.73 322.02 C 238.16 323.37 235.77 325.86 236.20 329.00 C 236.28 332.90 240.20 335.19 243.75 335.23 C 246.27 336.66 249.11 337.86 252.07 337.14 C 259.32 335.91 263.20 326.19 258.64 320.33 C 254.70 313.70 243.14 314.43 240.73 322.02 M 239.45 350.72 C 240.44 352.80 240.34 356.24 243.25 356.57 C 242.90 355.11 242.55 353.67 242.18 352.22 C 243.91 351.61 245.64 351.02 247.39 350.45 C 248.21 351.57 249.02 352.71 249.90 353.81 C 251.32 352.81 250.08 351.13 250.09 349.82 C 251.44 349.34 252.79 348.87 254.15 348.40 C 254.94 350.01 255.46 351.98 257.46 352.50 C 256.95 350.25 256.38 348.03 255.80 345.81 C 250.31 347.31 244.88 349.03 239.45 350.72 M 253.12 366.15 C 253.02 368.51 254.63 370.89 257.15 370.94 C 256.03 369.25 255.60 366.19 253.12 366.15 M 260.49 386.35 C 262.10 387.91 263.73 389.44 265.43 390.91 C 266.34 388.98 264.92 387.59 263.68 386.34 C 266.75 382.73 270.30 379.56 273.24 375.85 C 273.01 375.35 272.54 374.36 272.31 373.87 C 268.30 377.96 264.48 382.24 260.49 386.35 M 285.37 385.59 C 281.60 388.19 279.68 392.84 278.46 397.11 C 277.39 400.76 283.05 403.18 285.25 400.28 C 287.84 397.39 289.77 393.81 290.70 390.04 C 291.79 387.04 288.02 384.38 285.37 385.59 M 298.47 408.27 C 300.94 408.22 301.66 405.95 302.64 404.16 C 303.78 404.35 304.92 404.56 306.07 404.77 C 306.39 406.68 305.93 409.38 308.70 409.45 C 308.42 404.61 308.10 399.77 307.67 394.95 C 307.68 393.47 306.99 392.19 306.18 391.01 C 303.38 396.65 300.69 402.37 298.47 408.27 M 328.49 391.23 C 328.69 395.36 329.23 399.46 329.84 403.55 C 327.88 399.97 326.38 396.11 323.95 392.80 C 323.49 392.78 322.57 392.73 322.11 392.70 C 322.22 398.17 323.35 403.56 323.86 409.01 C 324.42 409.00 325.55 408.98 326.12 408.97 C 325.57 404.97 325.04 400.98 324.44 396.99 C 326.01 400.25 327.44 403.59 329.32 406.70 C 330.00 407.96 331.07 408.74 332.55 409.04 C 331.84 403.50 331.58 397.88 330.37 392.43 C 329.90 392.13 328.96 391.53 328.49 391.23 Z" />
<path fill="#ffb332" opacity="1.00" d=" M 303.51 247.71 C 304.39 249.82 305.24 251.95 306.09 254.08 C 305.13 254.25 304.18 254.42 303.24 254.60 C 303.33 252.30 303.42 250.00 303.51 247.71 Z" />
<path fill="#ffb332" opacity="1.00" d=" M 279.26 254.07 C 280.18 252.20 281.85 254.57 282.50 255.44 C 284.12 258.27 286.56 261.43 285.81 264.85 C 282.97 265.70 281.90 262.12 280.68 260.25 C 280.04 258.33 278.04 255.98 279.26 254.07 Z" />
<path fill="#ffb332" opacity="1.00" d=" M 298.45 309.91 C 300.09 306.11 301.79 302.33 303.24 298.44 C 308.22 298.67 313.22 298.79 318.21 298.65 C 318.47 299.03 318.99 299.79 319.25 300.17 C 317.68 305.63 316.60 311.21 315.85 316.84 C 312.35 316.89 308.80 317.22 305.34 316.52 C 301.97 315.81 300.39 312.38 298.45 309.91 Z" />
<path fill="#ffb332" opacity="1.00" d=" M 289.97 329.84 C 293.89 332.45 298.09 334.86 302.85 335.46 C 307.20 335.88 311.57 335.95 315.94 335.94 C 316.66 341.98 317.71 347.97 319.00 353.92 C 309.99 354.28 300.97 353.91 291.97 354.07 C 288.76 354.02 285.81 355.34 283.01 356.75 L 282.88 356.81 C 281.88 354.50 280.58 351.95 281.71 349.41 C 284.27 342.81 287.26 336.38 289.97 329.84 Z" />
<path fill="#ffb332" opacity="1.00" d=" M 286.11 388.03 L 286.94 387.29 C 287.35 387.70 288.17 388.52 288.58 388.93 C 287.37 392.89 285.74 397.29 282.08 399.62 C 281.74 399.22 281.07 398.42 280.74 398.02 C 281.67 394.34 283.34 390.68 286.11 388.03 Z" />
<path fill="#ffb332" opacity="1.00" d=" M 305.70 395.76 C 305.76 398.10 305.91 400.44 306.16 402.77 C 305.20 402.58 304.25 402.39 303.30 402.20 C 304.08 400.04 304.88 397.90 305.70 395.76 Z" />
</g>
<g id="#398378ff">
<path fill="#398378" opacity="1.00" d=" M 324.51 243.19 C 325.05 243.17 326.14 243.11 326.69 243.09 C 327.91 247.13 328.81 251.25 329.42 255.43 C 329.93 251.53 330.48 247.64 330.92 243.74 C 331.45 243.76 332.51 243.80 333.04 243.82 C 332.38 249.32 331.90 254.84 330.99 260.30 C 330.53 260.25 329.60 260.15 329.13 260.10 C 327.59 256.19 327.02 252.00 326.02 247.94 C 325.58 251.65 325.41 255.41 324.63 259.07 C 324.11 259.27 323.08 259.68 322.56 259.88 C 323.09 254.30 323.90 248.76 324.51 243.19 Z" />
<path fill="#398378" opacity="1.00" d=" M 302.05 244.93 C 302.32 244.52 302.85 243.68 303.12 243.26 C 306.29 248.48 308.40 254.26 310.84 259.84 C 308.14 260.51 307.89 257.60 306.72 256.10 C 305.62 256.26 304.52 256.42 303.43 256.58 C 303.05 258.60 303.16 261.05 300.73 261.75 C 301.15 256.15 301.24 250.50 302.05 244.93 M 303.51 247.71 C 303.42 250.00 303.33 252.30 303.24 254.60 C 304.18 254.42 305.13 254.25 306.09 254.08 C 305.24 251.95 304.39 249.82 303.51 247.71 Z" />
<path fill="#398378" opacity="1.00" d=" M 279.30 251.40 C 281.04 250.61 282.80 251.77 283.77 253.18 C 285.93 256.12 287.69 259.46 288.40 263.05 C 289.13 266.09 284.69 268.95 282.37 266.74 C 279.39 263.84 277.47 259.90 276.51 255.89 C 276.00 253.90 277.40 251.92 279.30 251.40 M 279.26 254.07 C 278.04 255.98 280.04 258.33 280.68 260.25 C 281.90 262.12 282.97 265.70 285.81 264.85 C 286.56 261.43 284.12 258.27 282.50 255.44 C 281.85 254.57 280.18 252.20 279.26 254.07 Z" />
<path fill="#398378" opacity="1.00" d=" M 257.03 266.72 C 257.57 266.61 258.65 266.40 259.19 266.29 C 262.70 269.26 265.52 272.94 268.77 276.18 C 270.06 275.40 271.17 273.80 272.87 274.28 C 272.47 276.53 270.20 277.74 268.80 279.36 C 264.85 275.17 260.81 271.06 257.03 266.72 Z" />
<path fill="#398378" opacity="1.00" d=" M 372.27 285.46 C 376.34 281.94 381.00 279.17 385.24 275.85 C 386.53 277.94 389.28 280.70 387.07 283.12 C 384.93 286.22 380.62 286.61 378.08 283.78 C 376.20 285.00 374.49 286.86 372.11 286.96 C 372.15 286.58 372.23 285.83 372.27 285.46 M 379.53 283.11 C 382.47 284.44 386.99 281.99 385.34 278.49 C 383.32 279.92 381.38 281.46 379.53 283.11 Z" />
<path fill="#398378" opacity="1.00" d=" M 251.60 290.53 C 252.18 288.39 252.77 284.71 255.90 285.54 C 254.84 287.50 253.70 289.52 251.60 290.53 Z" />
<path fill="#398378" opacity="1.00" d=" M 300.61 295.50 C 303.02 291.68 307.50 288.95 312.11 289.95 C 317.13 290.66 319.95 295.31 322.88 298.91 C 332.81 311.38 342.76 323.84 352.77 336.25 C 354.73 338.74 356.54 341.70 356.24 345.01 C 356.17 348.34 354.02 351.06 351.95 353.47 C 346.64 355.82 340.77 355.96 335.11 356.74 C 322.94 358.34 310.76 359.87 298.59 361.47 C 292.65 362.31 285.88 363.97 280.76 359.76 C 278.45 356.48 276.69 352.31 278.32 348.33 C 281.01 341.02 284.44 334.01 287.34 326.79 C 291.79 316.37 296.26 305.96 300.61 295.50 M 303.24 298.44 C 301.79 302.33 300.09 306.11 298.45 309.91 C 295.66 316.57 292.79 323.19 289.97 329.84 C 287.26 336.38 284.27 342.81 281.71 349.41 C 280.58 351.95 281.88 354.50 282.88 356.81 L 283.01 356.75 C 285.03 358.25 287.41 359.38 290.00 358.86 C 303.69 357.32 317.32 355.34 331.00 353.69 C 336.52 352.77 342.14 352.54 347.61 351.33 C 352.33 350.10 354.28 343.60 351.08 339.93 C 345.32 332.52 339.34 325.26 333.50 317.90 C 328.74 312.00 324.08 306.02 319.25 300.17 C 318.99 299.79 318.47 299.03 318.21 298.65 C 316.27 296.39 314.25 293.59 310.97 293.47 C 307.51 293.05 304.72 295.57 303.24 298.44 Z" />
<path fill="#398378" opacity="1.00" d=" M 235.05 304.99 C 235.87 302.77 236.03 299.91 238.47 298.76 C 238.28 299.95 237.90 302.32 237.71 303.51 C 239.14 303.97 240.57 304.44 242.01 304.91 C 242.41 303.67 242.82 302.44 243.24 301.22 C 244.94 302.20 244.42 304.01 244.22 305.59 C 245.95 306.06 247.69 306.54 249.42 307.03 C 250.26 305.59 251.13 304.14 252.36 302.99 C 252.19 305.33 251.73 307.63 251.09 309.89 C 245.74 308.28 240.40 306.61 235.05 304.99 Z" />
<path fill="#398378" opacity="1.00" d=" M 236.20 329.00 C 235.77 325.86 238.16 323.37 240.73 322.02 C 244.49 321.69 248.87 323.80 248.92 328.04 C 249.45 331.52 246.51 333.85 243.75 335.23 C 240.20 335.19 236.28 332.90 236.20 329.00 Z" />
<path fill="#398378" opacity="1.00" d=" M 386.04 327.04 C 386.70 323.70 390.07 322.22 393.11 321.84 C 396.60 322.78 399.58 326.16 398.59 329.95 C 397.87 333.68 393.87 335.40 390.39 334.99 C 387.72 333.33 384.95 330.48 386.04 327.04 Z" />
<path fill="#398378" opacity="1.00" d=" M 239.45 350.72 C 244.88 349.03 250.31 347.31 255.80 345.81 C 256.38 348.03 256.95 350.25 257.46 352.50 C 255.46 351.98 254.94 350.01 254.15 348.40 C 252.79 348.87 251.44 349.34 250.09 349.82 C 250.08 351.13 251.32 352.81 249.90 353.81 C 249.02 352.71 248.21 351.57 247.39 350.45 C 245.64 351.02 243.91 351.61 242.18 352.22 C 242.55 353.67 242.90 355.11 243.25 356.57 C 240.34 356.24 240.44 352.80 239.45 350.72 Z" />
<path fill="#398378" opacity="1.00" d=" M 379.73 347.64 C 382.31 346.80 385.47 347.99 386.99 350.21 C 387.32 351.65 387.44 353.14 387.62 354.62 C 389.44 355.28 391.27 355.93 393.09 356.60 C 392.79 357.07 392.20 358.00 391.90 358.46 C 386.74 356.65 381.60 354.81 376.46 352.95 C 377.50 351.17 378.12 349.00 379.73 347.64 M 379.06 351.56 C 381.20 352.42 383.39 353.18 385.66 353.61 C 385.92 350.69 382.67 350.33 380.81 349.25 C 380.22 350.02 379.64 350.79 379.06 351.56 Z" />
<path fill="#398378" opacity="1.00" d=" M 367.51 368.47 C 368.99 367.04 370.15 365.04 372.12 364.25 C 374.35 364.09 376.42 365.60 377.69 367.33 C 379.00 369.03 377.82 371.18 377.73 373.07 C 378.22 373.44 379.19 374.19 379.68 374.57 C 379.20 375.11 378.72 375.66 378.25 376.22 C 374.66 373.65 371.09 371.05 367.51 368.47 M 370.85 366.89 C 370.62 369.63 374.63 370.33 376.40 371.84 C 376.75 368.93 373.86 365.53 370.85 366.89 Z" />
<path fill="#398378" opacity="1.00" d=" M 253.12 366.15 C 255.60 366.19 256.03 369.25 257.15 370.94 C 254.63 370.89 253.02 368.51 253.12 366.15 Z" />
<path fill="#398378" opacity="1.00" d=" M 260.49 386.35 C 264.48 382.24 268.30 377.96 272.31 373.87 C 272.54 374.36 273.01 375.35 273.24 375.85 C 270.30 379.56 266.75 382.73 263.68 386.34 C 264.92 387.59 266.34 388.98 265.43 390.91 C 263.73 389.44 262.10 387.91 260.49 386.35 Z" />
<path fill="#398378" opacity="1.00" d=" M 355.87 378.46 C 360.24 380.95 364.18 384.07 367.99 387.34 C 367.17 387.69 366.35 388.05 365.54 388.42 C 364.50 388.84 363.11 389.36 363.03 390.69 L 362.76 391.88 C 362.45 392.13 361.84 392.63 361.53 392.89 C 359.35 388.20 357.12 383.50 355.87 378.46 M 358.96 382.46 C 359.89 384.53 360.84 386.60 361.93 388.60 C 362.74 388.08 363.59 387.63 364.50 387.29 C 362.67 385.66 360.85 384.02 358.96 382.46 Z" />
<path fill="#398378" opacity="1.00" d=" M 298.47 408.27 C 300.69 402.37 303.38 396.65 306.18 391.01 C 306.99 392.19 307.68 393.47 307.67 394.95 C 308.10 399.77 308.42 404.61 308.70 409.45 C 305.93 409.38 306.39 406.68 306.07 404.77 C 304.92 404.56 303.78 404.35 302.64 404.16 C 301.66 405.95 300.94 408.22 298.47 408.27 M 305.70 395.76 C 304.88 397.90 304.08 400.04 303.30 402.20 C 304.25 402.39 305.20 402.58 306.16 402.77 C 305.91 400.44 305.76 398.10 305.70 395.76 Z" />
<path fill="#398378" opacity="1.00" d=" M 328.49 391.23 C 328.96 391.53 329.90 392.13 330.37 392.43 C 331.58 397.88 331.84 403.50 332.55 409.04 C 331.07 408.74 330.00 407.96 329.32 406.70 C 327.44 403.59 326.01 400.25 324.44 396.99 C 325.04 400.98 325.57 404.97 326.12 408.97 C 325.55 408.98 324.42 409.00 323.86 409.01 C 323.35 403.56 322.22 398.17 322.11 392.70 C 322.57 392.73 323.49 392.78 323.95 392.80 C 326.38 396.11 327.88 399.97 329.84 403.55 C 329.23 399.46 328.69 395.36 328.49 391.23 Z" />
</g>
<g id="#398279ff">
<path fill="#398279" opacity="1.00" d=" M 366.85 261.80 C 367.92 260.83 369.31 260.43 370.73 260.36 C 368.58 265.89 366.10 271.29 363.76 276.74 C 363.29 276.53 362.35 276.10 361.88 275.88 C 362.45 274.49 363.01 273.09 363.56 271.69 C 362.66 270.96 361.77 270.23 360.88 269.50 C 359.17 270.61 357.47 272.21 355.27 271.28 C 358.88 267.82 362.95 264.91 366.85 261.80 M 362.01 268.03 C 362.61 268.54 363.82 269.56 364.42 270.07 C 365.47 267.91 366.52 265.76 367.56 263.59 C 365.68 265.04 363.84 266.53 362.01 268.03 Z" />
<path fill="#398279" opacity="1.00" d=" M 285.37 385.59 C 288.02 384.38 291.79 387.04 290.70 390.04 C 289.77 393.81 287.84 397.39 285.25 400.28 C 283.05 403.18 277.39 400.76 278.46 397.11 C 279.68 392.84 281.60 388.19 285.37 385.59 M 286.11 388.03 C 283.34 390.68 281.67 394.34 280.74 398.02 C 281.07 398.42 281.74 399.22 282.08 399.62 C 285.74 397.29 287.37 392.89 288.58 388.93 C 288.17 388.52 287.35 387.70 286.94 387.29 L 286.11 388.03 Z" />
</g>
<g id="#d4bf41ff">
<path fill="#d4bf41" opacity="1.00" d=" M 362.01 268.03 C 363.84 266.53 365.68 265.04 367.56 263.59 C 366.52 265.76 365.47 267.91 364.42 270.07 C 363.82 269.56 362.61 268.54 362.01 268.03 Z" />
</g>
<g id="#398379ff">
<path fill="#398379" opacity="1.00" d=" M 380.87 302.82 C 386.21 300.54 391.74 298.76 397.22 296.85 C 397.62 299.20 399.60 302.33 397.06 304.12 C 394.16 306.58 389.64 306.09 388.02 302.41 C 385.70 302.71 382.74 305.50 380.87 302.82 M 389.72 301.85 C 391.89 304.42 396.94 303.20 396.56 299.41 C 394.24 300.12 391.98 300.98 389.72 301.85 Z" />
</g>
<g id="#edc23fff">
<path fill="#edc23f" opacity="1.00" d=" M 370.85 366.89 C 373.86 365.53 376.75 368.93 376.40 371.84 C 374.63 370.33 370.62 369.63 370.85 366.89 Z" />
</g>
</svg>
