<?xml version="1.0" encoding="UTF-8" ?>
<!DOCTYPE svg PUBLIC "-//W3C//DTD SVG 1.1//EN" "http://www.w3.org/Graphics/SVG/1.1/DTD/svg11.dtd">
<svg width="1000pt" height="353pt" viewBox="0 0 1000 353" version="1.1" xmlns="http://www.w3.org/2000/svg">
<g id="#398378ff">
<path fill="#398378" opacity="1.00" d=" M 838.09 0.00 L 842.31 0.00 C 844.88 8.69 847.55 17.46 848.49 26.51 L 847.70 27.62 C 848.19 27.52 848.69 27.43 849.21 27.32 C 848.96 18.67 850.62 10.10 851.65 1.54 C 853.13 1.65 854.62 1.77 856.12 1.89 C 854.66 13.53 853.34 25.18 851.74 36.79 C 850.31 36.66 848.89 36.53 847.49 36.40 C 844.96 27.28 842.39 18.15 841.15 8.74 C 840.56 17.50 839.43 26.21 838.38 34.93 C 836.84 34.88 835.30 34.83 833.79 34.77 C 835.19 23.18 836.60 11.58 838.09 0.00 Z" />
<path fill="#398378" opacity="1.00" d=" M 790.24 2.25 C 791.46 2.05 792.70 1.87 793.94 1.68 C 798.65 12.84 804.19 23.64 808.60 34.91 C 807.05 35.18 805.50 35.43 803.97 35.68 C 802.67 33.04 802.00 29.95 800.26 27.62 C 797.73 27.93 795.23 28.46 792.71 28.84 C 792.47 31.82 792.32 34.81 792.07 37.79 C 790.50 38.04 788.95 38.28 787.40 38.52 C 788.32 26.42 789.19 14.33 790.24 2.25 M 792.85 24.61 C 794.85 24.26 796.86 23.91 798.87 23.55 C 796.80 18.65 794.65 13.75 793.29 8.59 C 793.28 13.93 793.18 19.28 792.85 24.61 Z" />
<path fill="#398378" opacity="1.00" d=" M 742.45 17.69 C 745.71 16.32 749.03 18.40 751.01 20.93 C 754.83 25.71 757.52 31.29 759.88 36.91 C 761.25 40.59 762.58 45.35 759.68 48.66 C 757.14 51.34 752.53 53.32 749.19 50.90 C 745.08 47.80 742.72 43.04 740.33 38.62 C 738.26 34.32 735.85 29.84 736.06 24.92 C 736.16 21.35 739.21 18.65 742.45 17.69 M 743.43 22.38 C 740.93 22.92 740.70 25.94 741.46 27.92 C 743.11 33.34 745.85 38.38 748.86 43.16 C 750.14 44.95 752.01 47.63 754.57 46.68 C 757.33 45.65 756.52 42.24 755.78 40.11 C 753.87 35.00 751.29 30.12 748.32 25.55 C 747.15 24.03 745.64 21.79 743.43 22.38 Z" />
<path fill="#398378" opacity="1.00" d=" M 903.88 58.56 C 913.54 51.18 922.91 43.41 932.77 36.29 C 933.44 36.78 934.76 37.77 935.43 38.26 C 930.86 49.53 925.91 60.64 921.04 71.78 C 919.70 70.86 918.40 69.91 917.12 68.95 C 918.36 66.26 919.60 63.57 920.85 60.88 C 918.75 59.25 916.66 57.61 914.58 55.96 C 912.27 57.77 910.00 59.62 907.77 61.52 C 906.41 60.61 905.12 59.61 903.88 58.56 M 917.83 53.23 C 919.43 54.48 921.04 55.73 922.66 56.98 C 924.83 52.11 927.16 47.31 929.85 42.70 C 926.06 46.45 921.97 49.88 917.83 53.23 Z" />
<path fill="#398378" opacity="1.00" d=" M 695.66 51.61 C 696.66 50.43 697.70 49.29 698.78 48.16 C 705.86 55.68 712.93 63.19 720.01 70.71 C 721.98 68.86 723.95 67.02 725.92 65.17 C 726.87 66.19 727.83 67.22 728.79 68.26 C 725.86 71.31 722.68 74.10 719.64 77.04 C 711.61 68.60 703.68 60.06 695.66 51.61 Z" />
<path fill="#398378" opacity="1.00" d=" M 938.07 90.43 C 947.64 83.62 957.04 76.57 966.73 69.93 C 969.28 73.74 973.74 77.84 972.02 82.88 C 969.91 87.01 965.55 89.99 961.04 90.87 C 957.23 91.57 954.14 88.82 952.08 85.98 C 948.34 88.63 944.67 91.38 940.89 93.97 C 939.93 92.79 939.00 91.61 938.07 90.43 M 955.54 83.50 C 956.70 84.75 957.90 86.81 959.97 86.08 C 963.00 85.18 965.95 83.31 967.69 80.62 C 968.65 78.82 966.91 77.32 966.13 75.85 C 962.59 78.39 959.05 80.92 955.54 83.50 Z" />
<path fill="#398378" opacity="1.00" d=" M 683.16 97.96 C 684.85 95.01 686.63 92.12 688.48 89.26 C 689.51 90.09 690.56 90.93 691.60 91.77 C 689.88 94.55 688.17 97.34 686.48 100.14 C 685.37 99.41 684.26 98.69 683.16 97.96 Z" />
<path fill="#398378" opacity="1.00" d=" M 803.50 99.65 C 811.73 98.11 820.73 101.29 825.88 107.97 C 850.53 138.70 875.13 169.47 899.74 200.22 C 905.11 206.59 906.79 215.89 903.50 223.62 C 900.55 231.34 893.21 237.08 885.00 238.03 C 845.07 243.26 805.12 248.33 765.18 253.49 C 759.81 254.23 754.16 253.22 749.56 250.31 C 742.51 245.84 738.00 237.44 738.71 229.05 C 738.94 224.35 741.08 220.08 742.88 215.84 C 756.71 183.34 770.56 150.86 784.38 118.36 C 786.03 114.53 787.47 110.48 790.27 107.30 C 793.61 103.31 798.40 100.63 803.50 99.65 M 803.43 107.69 C 798.72 109.03 794.95 112.75 793.20 117.27 C 777.97 153.02 762.69 188.74 747.48 224.50 C 744.13 231.68 747.57 240.84 754.57 244.38 C 758.33 246.52 762.81 246.28 766.94 245.60 C 805.66 240.62 844.37 235.61 883.09 230.65 C 887.01 230.21 890.90 228.59 893.56 225.58 C 898.54 220.24 899.07 211.25 894.36 205.56 C 869.83 174.82 845.22 144.14 820.65 113.43 C 816.79 108.24 809.65 105.63 803.43 107.69 Z" />
<path fill="#398378" opacity="1.00" d=" M 958.57 126.03 C 969.54 122.07 980.56 118.28 991.49 114.22 C 993.48 118.59 996.54 124.59 992.74 128.82 C 989.39 131.76 984.63 133.36 980.20 132.80 C 976.50 132.26 974.43 128.84 973.24 125.65 C 968.87 127.14 964.61 128.90 960.17 130.14 C 959.62 128.77 959.09 127.40 958.57 126.03 M 977.15 124.44 C 978.06 125.87 978.80 128.08 980.90 127.97 C 983.85 127.88 986.89 127.02 989.29 125.26 C 991.19 124.03 990.03 121.67 989.77 119.95 C 985.48 121.20 981.24 122.65 977.15 124.44 Z" />
<path fill="#398378" opacity="1.00" d=" M 652.09 119.13 C 653.34 119.54 654.59 119.97 655.86 120.40 C 655.24 123.08 654.42 125.71 653.58 128.33 C 656.71 129.30 659.86 130.27 663.01 131.22 C 663.71 128.95 664.40 126.68 665.11 124.41 C 666.41 124.90 667.72 125.39 669.03 125.89 C 668.38 128.09 667.72 130.28 667.07 132.48 C 671.15 133.68 675.23 134.90 679.26 136.28 C 680.17 133.70 680.99 131.09 681.77 128.46 C 683.05 128.94 684.33 129.42 685.62 129.90 C 684.42 133.89 683.20 137.86 681.97 141.82 C 670.79 138.23 659.45 135.13 648.34 131.34 C 649.58 127.27 650.82 123.19 652.09 119.13 Z" />
<path fill="#398378" opacity="1.00" d=" M 659.37 168.62 C 666.27 165.80 674.85 169.88 677.05 176.99 C 679.60 183.90 675.38 192.27 668.31 194.31 C 661.22 196.82 652.82 192.20 651.03 184.94 C 649.07 178.40 652.94 170.89 659.37 168.62 Z" />
<path fill="#398378" opacity="1.00" d=" M 977.28 168.49 C 984.46 165.78 993.16 170.44 994.88 177.90 C 997.06 185.29 991.68 193.64 984.08 194.76 C 976.73 196.28 969.01 190.56 968.23 183.13 C 967.27 176.89 971.32 170.46 977.28 168.49 Z" />
<path fill="#398378" opacity="1.00" d=" M 657.72 228.34 C 669.14 224.96 680.45 221.22 691.91 217.98 C 693.26 222.11 694.49 226.27 695.77 230.42 C 694.44 230.77 693.11 231.11 691.79 231.45 C 690.91 228.81 690.08 226.16 689.28 223.51 C 686.10 224.52 682.92 225.51 679.73 226.44 C 680.42 228.74 681.12 231.04 681.83 233.34 C 680.48 233.70 679.14 234.06 677.81 234.41 C 677.00 232.21 676.28 229.97 675.61 227.72 C 671.45 229.00 667.29 230.28 663.12 231.55 C 663.92 234.17 664.73 236.79 665.53 239.41 C 664.23 239.77 662.93 240.13 661.64 240.49 C 660.13 236.51 659.06 232.38 657.72 228.34 Z" />
<path fill="#398378" opacity="1.00" d=" M 955.02 222.01 C 959.42 220.14 964.49 222.29 968.20 224.80 C 971.97 227.36 972.19 232.43 970.62 236.34 C 974.98 237.82 979.29 239.46 983.64 240.99 C 983.22 242.49 982.81 243.98 982.40 245.48 C 971.25 241.50 960.12 237.45 948.93 233.55 C 950.07 229.41 951.13 224.45 955.02 222.01 M 954.04 230.41 C 958.20 231.89 962.35 233.39 966.52 234.86 C 966.91 233.19 967.87 231.05 966.21 229.73 C 963.70 227.67 960.41 226.28 957.15 226.36 C 955.11 226.61 954.79 228.90 954.04 230.41 Z" />
<path fill="#398378" opacity="1.00" d=" M 929.62 266.25 C 932.48 262.72 934.84 257.28 940.04 257.07 C 944.69 257.52 948.89 260.76 951.35 264.63 C 953.53 268.11 951.93 272.25 949.77 275.28 C 953.50 278.02 957.32 280.64 961.00 283.47 C 960.19 284.75 959.37 286.03 958.57 287.32 C 948.91 280.31 939.07 273.54 929.62 266.25 M 935.47 264.97 C 939.06 267.55 942.64 270.16 946.24 272.74 C 947.08 271.23 948.62 269.43 947.35 267.69 C 945.60 265.12 942.97 263.05 940.03 262.05 C 937.83 261.30 936.67 263.65 935.47 264.97 Z" />
<path fill="#398378" opacity="1.00" d=" M 685.73 262.90 C 686.87 262.26 688.01 261.62 689.17 260.98 C 691.11 263.78 692.82 266.72 694.68 269.57 C 693.46 270.22 692.25 270.87 691.05 271.52 C 689.25 268.66 687.47 265.79 685.73 262.90 Z" />
<path fill="#398378" opacity="1.00" d=" M 702.18 304.05 C 710.38 295.46 718.29 286.59 726.73 278.24 C 727.82 279.23 728.95 280.23 730.06 281.24 C 722.93 288.88 715.71 296.44 708.58 304.08 C 710.60 305.97 712.62 307.86 714.62 309.78 C 713.52 310.78 712.45 311.79 711.33 312.76 C 708.34 309.80 705.23 306.95 702.18 304.05 Z" />
<path fill="#398378" opacity="1.00" d=" M 904.57 290.10 C 905.85 289.44 907.42 287.36 908.74 289.17 C 917.92 296.50 927.45 303.42 936.43 311.00 C 935.14 312.00 933.85 312.98 932.56 313.94 C 930.28 312.01 927.99 310.11 925.68 308.24 C 923.52 309.89 921.36 311.55 919.23 313.22 C 920.46 315.89 921.68 318.56 922.96 321.22 C 921.73 322.34 920.43 323.38 919.09 324.34 C 914.28 312.92 908.97 301.68 904.57 290.10 M 910.07 294.71 C 912.82 299.39 915.15 304.31 917.39 309.27 C 919.04 308.03 920.68 306.77 922.33 305.51 C 918.12 302.04 913.92 298.56 910.07 294.71 Z" />
<path fill="#398378" opacity="1.00" d=" M 755.23 302.28 C 760.46 300.25 767.89 304.98 766.45 310.98 C 765.20 317.60 761.66 323.52 758.23 329.22 C 755.91 332.67 752.67 336.78 748.02 336.30 C 744.41 335.69 740.15 333.17 740.09 329.07 C 740.22 323.74 742.88 318.91 745.23 314.26 C 747.78 309.76 750.31 304.58 755.23 302.28 M 757.19 307.03 C 753.79 309.05 752.11 312.88 750.16 316.15 C 748.23 319.94 745.89 323.72 745.40 328.02 C 744.94 330.36 747.99 332.42 749.94 331.00 C 753.19 328.77 754.85 324.99 756.78 321.69 C 758.63 317.93 760.96 314.21 761.44 309.98 C 761.81 307.82 759.06 305.96 757.19 307.03 Z" />
<path fill="#398378" opacity="1.00" d=" M 782.83 349.08 C 787.83 337.88 792.90 326.71 797.95 315.53 C 799.18 315.68 800.43 315.83 801.68 315.99 C 802.61 328.25 803.66 340.50 804.48 352.77 C 802.80 352.61 801.17 352.33 799.55 351.95 C 799.48 348.99 799.33 346.03 799.17 343.08 C 796.50 342.56 793.82 342.11 791.14 341.68 C 789.99 344.41 788.83 347.14 787.68 349.87 C 786.05 349.66 784.43 349.39 782.83 349.08 M 798.56 322.59 C 797.00 327.75 794.91 332.72 792.82 337.68 C 794.85 338.03 796.89 338.39 798.93 338.75 C 798.60 333.37 798.45 327.98 798.56 322.59 Z" />
<path fill="#398378" opacity="1.00" d=" M 846.25 316.07 C 847.34 315.93 849.54 315.64 850.63 315.50 C 852.07 327.29 853.64 339.06 854.93 350.87 C 853.49 351.09 852.06 351.31 850.65 351.53 C 845.87 343.15 841.10 334.75 837.54 325.76 C 839.03 333.82 840.09 341.96 841.02 350.10 C 841.20 351.17 840.96 352.13 840.31 353.00 L 836.71 353.00 C 835.29 341.28 833.75 329.58 832.43 317.85 C 833.86 317.60 835.30 317.37 836.76 317.14 C 841.51 325.41 846.30 333.68 849.77 342.60 C 848.30 333.80 846.86 324.97 846.25 316.07 Z" />
</g>
<g id="#8abe53ff">
<path fill="#8abe53" opacity="1.00" d=" M 166.40 116.70 C 176.30 114.33 188.69 115.07 195.72 123.38 C 202.34 131.68 203.70 142.71 204.77 152.93 C 206.08 170.63 206.14 188.52 203.54 206.11 C 201.97 214.95 199.48 224.34 192.86 230.81 C 184.69 238.28 172.25 238.80 162.10 235.75 C 154.04 233.32 149.45 225.36 147.29 217.72 C 143.47 204.18 143.32 189.95 143.17 175.98 C 143.41 161.60 143.67 146.72 149.01 133.16 C 151.96 125.43 158.20 118.74 166.40 116.70 M 171.21 132.22 C 165.61 134.85 163.93 141.52 162.76 147.07 C 160.72 158.25 160.65 169.68 160.60 181.02 C 160.71 190.00 160.83 199.05 162.49 207.91 C 163.32 211.77 164.49 215.81 167.31 218.71 C 171.50 223.13 179.77 222.28 182.91 217.01 C 186.53 211.02 187.19 203.85 187.91 197.04 C 188.98 183.40 188.91 169.68 188.16 156.03 C 187.61 149.30 187.20 142.20 183.86 136.16 C 181.51 131.77 175.63 130.40 171.21 132.22 Z" />
<path fill="#8abe53" opacity="1.00" d=" M 1.39 121.92 C 1.38 120.15 1.56 117.14 4.01 117.27 C 17.64 117.10 31.28 117.25 44.92 117.20 C 44.82 121.10 45.13 125.04 44.56 128.92 C 44.44 130.27 43.47 131.19 42.07 131.04 C 33.66 131.27 25.23 131.06 16.81 131.13 C 16.80 142.20 16.81 153.27 16.81 164.33 C 24.77 164.34 32.73 164.33 40.69 164.34 C 40.54 168.54 40.90 172.81 40.06 176.96 C 39.76 178.29 38.23 178.56 37.09 178.53 C 30.33 178.56 23.57 178.51 16.81 178.53 C 16.81 192.98 16.80 207.42 16.81 221.87 C 25.90 221.88 34.98 221.86 44.07 221.87 C 43.84 226.11 44.36 230.45 43.37 234.60 C 43.01 236.06 41.16 235.62 40.06 235.80 C 27.17 235.80 14.28 235.80 1.40 235.79 C 1.40 197.83 1.41 159.88 1.39 121.92 Z" />
<path fill="#8abe53" opacity="1.00" d=" M 99.75 117.81 C 104.29 116.99 108.95 117.39 113.54 117.26 C 113.45 151.91 113.51 186.56 113.51 221.21 C 122.59 221.20 131.68 221.20 140.77 221.20 C 140.68 225.41 140.97 229.63 140.63 233.83 C 140.66 235.72 138.40 235.77 137.05 235.79 C 124.01 235.81 110.96 235.79 97.92 235.80 C 97.93 197.86 97.91 159.91 97.93 121.97 C 98.05 120.52 97.80 118.12 99.75 117.81 Z" />
<path fill="#8abe53" opacity="1.00" d=" M 239.51 117.27 C 243.10 116.21 246.90 116.91 250.54 117.35 C 260.31 155.59 270.14 193.82 279.91 232.06 C 280.49 233.38 280.34 235.27 278.64 235.60 C 273.92 236.57 269.05 235.94 264.27 235.79 C 262.05 226.13 259.85 216.46 257.63 206.80 C 248.63 206.79 239.62 206.80 230.62 206.79 C 228.68 215.19 226.79 223.60 224.87 232.00 C 224.55 233.57 223.88 235.56 222.01 235.76 C 217.26 236.50 212.44 235.87 207.69 235.44 C 217.52 197.00 227.36 158.55 237.20 120.11 C 237.42 118.83 238.16 117.58 239.51 117.27 M 244.12 139.22 C 242.05 157.29 237.90 175.03 233.83 192.73 C 240.69 192.73 247.55 192.75 254.41 192.72 C 250.29 175.03 246.12 157.30 244.12 139.22 Z" />
<path fill="#8abe53" opacity="1.00" d=" M 287.31 121.01 C 287.32 119.65 287.44 117.68 289.14 117.42 C 293.50 116.93 297.91 117.27 302.29 117.27 C 308.49 132.81 315.05 148.21 321.25 163.76 C 326.44 178.08 330.96 192.67 334.71 207.43 C 332.85 178.62 332.94 149.73 333.05 120.87 C 333.08 119.70 333.07 117.82 334.69 117.76 C 339.22 117.02 343.84 117.46 348.41 117.17 C 348.51 155.11 348.40 193.04 348.46 230.98 C 348.38 232.61 348.71 235.16 346.60 235.62 C 342.33 236.05 338.02 235.67 333.74 235.80 C 327.18 219.54 320.37 203.36 314.01 187.01 C 309.15 173.27 304.87 159.32 301.25 145.20 C 301.15 147.81 301.25 150.43 301.43 153.04 C 303.10 179.35 302.66 205.72 302.70 232.06 C 302.67 233.26 302.67 235.27 300.94 235.25 C 296.44 235.99 291.84 235.56 287.30 235.79 C 287.31 197.53 287.30 159.27 287.31 121.01 Z" />
<path fill="#8abe53" opacity="1.00" d=" M 413.21 117.30 C 416.82 116.19 420.65 116.90 424.31 117.37 C 434.09 155.69 443.95 194.00 453.74 232.32 C 454.19 233.50 454.09 235.13 452.64 235.52 C 447.86 236.63 442.89 235.93 438.04 235.79 C 435.80 226.13 433.63 216.45 431.38 206.79 C 422.37 206.81 413.37 206.78 404.37 206.81 C 402.46 215.18 400.55 223.55 398.65 231.93 C 398.28 233.43 397.79 235.43 395.98 235.71 C 391.17 236.54 386.28 235.86 381.46 235.45 C 391.21 197.22 401.03 159.01 410.78 120.78 C 411.15 119.39 411.53 117.62 413.21 117.30 M 417.87 139.46 C 415.74 157.44 411.68 175.11 407.58 192.72 C 414.44 192.76 421.31 192.73 428.17 192.73 C 424.06 175.12 419.97 157.45 417.87 139.46 Z" />
<path fill="#8abe53" opacity="1.00" d=" M 461.45 120.09 C 461.01 116.78 464.81 117.15 467.00 117.18 C 478.40 117.49 490.79 115.79 501.08 121.85 C 509.30 126.81 512.02 136.90 512.52 145.91 C 513.26 157.82 512.03 171.28 503.31 180.29 C 496.51 187.36 486.19 188.96 476.81 188.54 C 476.80 203.05 476.83 217.55 476.80 232.05 C 476.74 233.20 476.83 235.05 475.26 235.20 C 470.69 236.02 466.01 235.55 461.41 235.79 C 461.44 197.23 461.35 158.65 461.45 120.09 M 476.82 130.74 C 476.81 145.20 476.81 159.67 476.82 174.13 C 481.57 174.10 487.43 174.93 490.77 170.69 C 494.95 165.10 495.18 157.72 495.42 151.02 C 495.31 145.09 495.51 138.34 491.40 133.57 C 487.65 129.61 481.68 130.98 476.82 130.74 Z" />
<path fill="#8abe53" opacity="1.00" d=" M 521.94 120.00 C 521.52 116.45 525.71 117.31 527.92 117.18 C 539.30 117.47 551.75 115.81 561.93 122.08 C 569.88 127.15 572.47 137.08 572.99 145.95 C 573.72 157.75 572.49 171.01 564.02 180.04 C 557.25 187.30 546.78 188.99 537.30 188.54 C 537.27 203.02 537.32 217.51 537.28 232.00 C 537.29 233.29 537.20 235.20 535.50 235.27 C 531.00 235.96 526.42 235.58 521.89 235.79 C 521.90 197.20 521.81 158.59 521.94 120.00 M 537.29 174.13 C 541.92 174.08 547.54 174.93 550.96 171.03 C 555.65 165.16 555.68 157.13 555.92 149.98 C 555.79 144.31 555.71 137.82 551.66 133.38 C 547.89 129.63 542.10 131.02 537.33 130.71 C 537.24 145.18 537.32 159.65 537.29 174.13 Z" />
<path fill="#8abe53" opacity="1.00" d=" M 53.27 181.38 C 64.01 181.07 74.77 181.42 85.52 181.22 C 85.49 185.13 85.67 189.12 84.80 192.96 C 84.50 194.22 83.24 194.91 82.00 194.77 C 71.68 194.85 61.36 194.77 51.03 194.80 C 51.32 190.62 50.54 186.15 52.10 182.18 C 52.39 181.98 52.98 181.58 53.27 181.38 Z" />
</g>
</svg>
